<?xml version="1.0" encoding="utf-8"?>
<!-- Generator: Adobe Illustrator 18.0.0, SVG Export Plug-In . SVG Version: 6.00 Build 0)  -->
<!DOCTYPE svg PUBLIC "-//W3C//DTD SVG 1.1//EN" "http://www.w3.org/Graphics/SVG/1.1/DTD/svg11.dtd">
<svg version="1.1" id="Layer_1" xmlns="http://www.w3.org/2000/svg" xmlns:xlink="http://www.w3.org/1999/xlink" x="0px" y="0px"
	 viewBox="0 0 34.9 32.8" enable-background="new 0 0 34.9 32.8" xml:space="preserve">
<path fill-rule="evenodd" clip-rule="evenodd" fill="#4B98C7" d="M19.5,22.8c0.6,0,1-0.5,1-1.1c0-0.6-0.4-1-1-1
	c-0.6,0-1.1,0.5-1.1,1C18.5,22.4,18.9,22.8,19.5,22.8L19.5,22.8z M4.5,0.8h29.7c0,7.7,0,15.4,0,23.1c-7,0-14,0-21,0v-4.2h18.9V2.9
	H4.5V0.8z M9,12.4H2.7v-2.1H9V12.4z M3.8,26c-0.6,0-1.1-0.4-1.1-1.1c0-0.6,0.5-1,1.1-1c0.6,0,1.1,0.5,1.1,1C4.9,25.6,4.4,26,3.8,26
	L3.8,26z M3.8,23.1c-0.3,0-0.7-0.3-0.7-0.7c0-0.3,0.3-0.6,0.7-0.6s0.6,0.3,0.6,0.6C4.4,22.8,4.1,23.1,3.8,23.1L3.8,23.1z M9,9.2H2.7
	V7.1H9V9.2z M0.7,5h10.5v27.2H0.7V5z M14.3,28.1h2.1V26h6.3v2.1h2.1v2.1h-2.1h-6.3h-2.1V28.1z"/>
</svg>
